<svg width="0" height="0" class="hidden">
  <symbol version="1.0" xmlns="http://www.w3.org/2000/svg" preserveAspectRatio="xMidYMid meet" viewBox="0 0 512.000000 512.000000" id="chevron">
    <g transform="translate(0.000000,512.000000) scale(0.100000,-0.100000)"  stroke="none">
      <path d="M880 3427 c-53 -17 -133 -102 -149 -160 -16 -55 -11 -118 13 -168 9
-20 367 -384 859 -875 899 -897 862 -864 957 -864 95 0 58 -33 957 864 492
491 850 855 859 875 44 93 26 191 -50 266 -71 71 -145 90 -240 63 -35 -10
-141 -111 -784 -752 l-742 -741 -743 741 c-642 641 -748 742 -783 752 -50 14
-107 14 -154 -1z"></path>
    </g>
  </symbol>
  <symbol version="1.0" xmlns="http://www.w3.org/2000/svg" preserveAspectRatio="xMidYMid meet" viewBox="0 0 512.000000 512.000000" id="facebook">
    <g transform="translate(0.000000,512.000000) scale(0.100000,-0.100000)"  stroke="none">
      <path d="M655 5114 c-11 -2 -45 -9 -75 -15 -217 -44 -429 -224 -522 -444 -56
-133 -53 -12 -53 -2095 0 -2083 -3 -1962 53 -2095 76 -178 229 -332 402 -405
135 -57 89 -54 978 -57 l822 -4 0 906 0 905 -300 0 -300 0 0 450 0 450 299 0
300 0 3 378 c4 351 6 382 26 457 87 313 333 559 647 647 77 21 98 22 608 26
l527 3 0 -450 0 -451 -455 0 -455 0 0 -305 0 -305 456 0 456 0 -6 -27 c-3 -16
-35 -206 -71 -423 -36 -217 -68 -407 -71 -423 l-6 -27 -379 0 -379 0 0 -905 0
-906 673 4 c572 3 679 5 722 19 280 86 478 289 546 558 21 82 21 3878 0 3960
-59 230 -227 429 -441 520 -140 59 19 54 -2070 56 -1053 1 -1924 0 -1935 -2z"></path>
    </g>
  </symbol>
  <symbol version="1.0" xmlns="http://www.w3.org/2000/svg" preserveAspectRatio="xMidYMid meet" viewBox="0 0 512.000000 512.000000" id="follow">
    <g transform="translate(0.000000,512.000000) scale(0.100000,-0.100000)"  stroke="none">
      <path d="M1925 5109 c-301 -44 -591 -216 -776 -458 -70 -92 -164 -286 -196
-406 -25 -92 -27 -115 -27 -295 -1 -173 2 -205 23 -280 34 -126 76 -228 130
-319 235 -391 654 -604 1119 -569 521 39 962 447 1047 969 40 251 3 496 -110
724 -66 133 -126 214 -239 323 -255 245 -621 362 -971 311z"></path>
      <path d="M4104 4130 c-62 -24 -134 -93 -166 -158 -21 -42 -24 -65 -28 -217
l-5 -170 -170 -5 c-195 -6 -229 -16 -302 -89 -59 -59 -85 -119 -91 -205 -8
-130 60 -246 176 -303 54 -27 65 -28 224 -31 l166 -4 4 -171 c4 -196 13 -228
90 -305 67 -68 117 -87 228 -87 111 0 154 18 226 91 70 72 84 125 84 314 l0
158 173 4 c194 4 228 13 307 84 160 144 123 413 -71 516 -40 21 -61 23 -224
28 l-180 5 -5 170 c-5 154 -7 175 -29 219 -30 60 -85 118 -143 147 -62 33
-194 37 -264 9z"></path>
      <path d="M1980 2653 c-680 -37 -1313 -397 -1683 -958 -119 -181 -221 -424
-269 -637 -31 -142 -31 -356 0 -472 89 -325 344 -529 717 -575 113 -14 2412
-15 2630 -1 172 11 262 32 380 90 151 75 271 194 344 345 57 116 72 181 78
335 5 113 2 152 -16 240 -166 815 -836 1447 -1696 1600 -105 19 -352 42 -405
38 -14 -1 -50 -3 -80 -5z"></path>
    </g>
  </symbol>
  <symbol version="1.0" xmlns="http://www.w3.org/2000/svg" preserveAspectRatio="xMidYMid meet" viewBox="0 0 512.000000 512.000000" id="instagram">
    <g transform="translate(0.000000,512.000000) scale(0.100000,-0.100000)"  stroke="none">
      <path d="M638 5110 c-284 -48 -519 -261 -610 -550 l-23 -75 0 -1930 0 -1930
27 -80 c87 -253 260 -426 513 -513 l80 -27 1930 0 1930 0 75 23 c139 44 225
96 330 202 106 105 158 191 202 330 l23 75 0 1925 0 1925 -23 75 c-83 263
-260 441 -527 531 l-70 24 -1905 1 c-1048 1 -1926 -2 -1952 -6z m3269 -616
c150 -31 275 -99 382 -207 98 -99 160 -207 199 -341 16 -57 17 -158 17 -1386
0 -1228 -1 -1329 -17 -1386 -81 -282 -301 -490 -580 -548 -68 -14 -225 -16
-1348 -16 -1386 0 -1346 -2 -1484 57 -179 75 -334 230 -409 408 -59 140 -57
98 -57 1485 0 1383 -2 1343 56 1484 89 220 304 399 540 449 107 24 2589 24
2701 1z"></path>
      <path d="M1255 4196 c-84 -21 -147 -57 -211 -121 -65 -65 -105 -136 -123 -223
-16 -76 -16 -2510 0 -2584 37 -172 175 -310 347 -347 74 -16 2508 -16 2584 0
170 36 311 178 347 347 16 76 16 2510 0 2584 -37 172 -176 311 -347 347 -80
17 -2529 14 -2597 -3z m2489 -320 c105 -51 161 -144 161 -266 0 -85 -21 -142
-74 -203 -82 -92 -237 -121 -353 -64 -160 79 -215 278 -118 430 80 126 246
170 384 103z m-944 -294 c198 -52 365 -146 501 -281 135 -135 226 -297 282
-501 29 -109 29 -371 0 -480 -56 -204 -147 -366 -282 -501 -135 -135 -297
-226 -501 -282 -110 -30 -371 -29 -483 1 -399 109 -670 381 -779 782 -32 115
-31 362 1 484 109 420 448 730 866 796 93 14 308 4 395 -18z"></path>
      <path d="M2405 3293 c-236 -50 -450 -228 -539 -449 -176 -433 87 -923 546
-1018 246 -51 499 26 677 207 138 140 205 289 218 487 27 425 -325 794 -754
789 -43 0 -109 -7 -148 -16z"></path>
    </g>
  </symbol>
  <symbol version="1.0" xmlns="http://www.w3.org/2000/svg" preserveAspectRatio="xMidYMid meet" viewBox="0 0 512.000000 512.000000" id="linkedin">
    <g transform="translate(0.000000,512.000000) scale(0.100000,-0.100000)"  stroke="none">
      <path d="M572 5109 c-279 -47 -519 -292 -562 -575 -7 -47 -10 -687 -8 -2019
l3 -1950 28 -80 c79 -223 229 -373 452 -452 l80 -28 1995 0 1995 0 80 28 c231
82 390 248 462 482 17 57 18 148 18 2050 l0 1990 -28 80 c-79 223 -229 373
-452 452 l-80 28 -1965 1 c-1109 1 -1988 -2 -2018 -7z m943 -964 c127 -34 230
-120 288 -242 40 -86 49 -207 22 -299 -54 -186 -223 -314 -412 -314 -174 0
-327 95 -398 247 -157 331 146 700 500 608z m1962 -1016 c349 -39 558 -239
632 -605 34 -168 41 -319 41 -918 l0 -578 -34 -34 -34 -34 -274 0 c-254 0
-275 1 -305 20 -18 11 -35 30 -38 42 -2 13 -6 286 -8 608 -3 516 -5 592 -20
645 -27 94 -64 161 -113 204 -60 53 -118 71 -224 71 -77 0 -94 -4 -148 -30
-73 -37 -125 -92 -163 -174 -63 -136 -62 -127 -68 -758 l-6 -577 -23 -23 c-22
-23 -27 -23 -292 -26 -296 -3 -316 0 -339 55 -8 21 -11 289 -9 1031 l3 1004
28 24 28 24 275 0 c169 0 283 -4 294 -10 33 -18 44 -51 50 -148 l5 -93 39 50
c135 178 399 264 703 230z m-1767 -57 c19 -19 30 -43 35 -73 3 -24 5 -476 3
-1004 -3 -905 -4 -962 -21 -986 -32 -47 -54 -50 -335 -47 l-262 3 -27 28 -28
27 -3 993 c-1 545 0 1003 3 1015 3 13 18 35 32 48 l26 24 274 0 275 0 28 -28z"></path>
    </g>
  </symbol>

  <!-- Replacing Twitter with Mail -->
<symbol version="1.0" xmlns="http://www.w3.org/2000/svg" preserveAspectRatio="xMidYMid meet" viewBox="0 0 512 512" id="twitter">
    <path d="M449.446,0c34.525,0 62.554,28.03 62.554,62.554l0,386.892c0,34.524 -28.03,62.554 -62.554,62.554l-386.892,0c-34.524,0 -62.554,-28.03 -62.554,-62.554l0,-386.892c0,-34.524 28.029,-62.554 62.554,-62.554l386.892,0Zm-253.927,424.544c135.939,0 210.268,-112.643 210.268,-210.268c0,-3.218 0,-6.437 -0.153,-9.502c14.406,-10.421 26.973,-23.448 36.935,-38.314c-13.18,5.824 -27.433,9.809 -42.452,11.648c15.326,-9.196 26.973,-23.602 32.49,-40.92c-14.252,8.429 -30.038,14.56 -46.896,17.931c-13.487,-14.406 -32.644,-23.295 -53.946,-23.295c-40.767,0 -73.87,33.104 -73.87,73.87c0,5.824 0.613,11.494 1.992,16.858c-61.456,-3.065 -115.862,-32.49 -152.337,-77.241c-6.284,10.881 -9.962,23.601 -9.962,37.088c0,25.594 13.027,48.276 32.95,61.456c-12.107,-0.307 -23.448,-3.678 -33.41,-9.196l0,0.92c0,35.862 25.441,65.594 59.311,72.49c-6.13,1.686 -12.72,2.606 -19.464,2.606c-4.751,0 -9.348,-0.46 -13.946,-1.38c9.349,29.426 36.628,50.728 68.965,51.341c-25.287,19.771 -57.164,31.571 -91.8,31.571c-5.977,0 -11.801,-0.306 -17.625,-1.073c32.337,21.15 71.264,33.41 112.95,33.41Z"/>
  </symbol>


  <symbol version="1.0" xmlns="http://www.w3.org/2000/svg" preserveAspectRatio="xMidYMid meet" viewBox="0 0 512.000000 512.000000" id="menu">
    <g transform="translate(0.000000,512.000000) scale(0.100000,-0.100000)"  stroke="none">
      <path d="M590 4261 c-104 -32 -160 -106 -160 -211 0 -84 53 -161 132 -194 33
-14 197 -16 1466 -16 l1428 0 53 26 c127 64 155 219 59 328 -71 81 39 76
-1547 75 -773 0 -1417 -4 -1431 -8z"></path>
      <path d="M539 2747 c-68 -36 -103 -93 -107 -175 -4 -83 21 -138 87 -186 l43
-31 1997 0 1997 0 37 25 c21 14 50 43 65 64 24 35 27 49 27 117 0 71 -3 81
-31 120 -18 24 -51 54 -75 66 l-42 23 -1977 0 -1977 0 -44 -23z"></path>
      <path d="M560 1264 c-78 -34 -130 -111 -130 -194 0 -88 38 -152 115 -193 l40
-22 1015 0 1015 0 45 25 c67 38 103 96 108 174 5 71 -14 120 -65 168 -64 61
-8 58 -1105 58 -874 -1 -1008 -3 -1038 -16z"></path>
    </g>
  </symbol>
  <symbol version="1.0" xmlns="http://www.w3.org/2000/svg" preserveAspectRatio="xMidYMid meet" viewBox="0 0 512.000000 512.000000" id="search">
    <g transform="translate(0.000000,512.000000) scale(0.100000,-0.100000)"  stroke="none">
      <path d="M2200 4354 c-600 -95 -1098 -489 -1328 -1051 -92 -225 -127 -431
-119 -693 7 -201 25 -308 86 -488 239 -717 932 -1192 1687 -1159 357 16 718
152 986 370 32 26 61 47 65 47 5 0 143 -135 308 -301 165 -165 312 -307 327
-315 98 -51 195 46 144 144 -8 15 -150 162 -315 327 -166 165 -301 303 -301
308 0 4 21 33 47 65 314 385 439 914 333 1418 -137 656 -667 1177 -1338 1315
-132 28 -447 35 -582 13z m405 -524 c249 -36 464 -138 645 -308 219 -205 338
-444 370 -747 14 -125 5 -166 -44 -196 -39 -24 -73 -24 -112 0 -39 24 -50 58
-58 171 -24 379 -300 719 -676 834 -47 15 -141 32 -209 40 -115 12 -126 15
-148 40 -42 50 -27 132 32 164 25 14 109 15 200 2z"></path>
    </g>
  </symbol>
  <symbol version="1.0" xmlns="http://www.w3.org/2000/svg" preserveAspectRatio="xMidYMid meet" viewBox="0 0 512.000000 512.000000" id="share">
    <g transform="translate(0.000000,512.000000) scale(0.100000,-0.100000)"  stroke="none">
      <path d="M2708 4514 l-3 -609 -95 -7 c-446 -34 -919 -199 -1314 -458 -434
-286 -767 -661 -996 -1125 -136 -274 -207 -490 -255 -770 -39 -232 -46 -388
-43 -984 l3 -555 179 420 c197 462 252 574 363 742 180 273 388 493 653 691
422 316 937 507 1468 544 l42 3 0 -603 c0 -332 3 -603 6 -603 3 0 375 302 827
672 452 370 990 809 1195 977 204 167 372 307 372 311 0 4 -118 103 -262 221
-145 117 -677 551 -1183 963 -506 411 -928 755 -937 764 -17 14 -18 -16 -20
-594z"></path>
    </g>
  </symbol>
</svg>

